PathFileType	4	(X/Y/Z)	 s01c0402.trc
DataRate	CameraRate	NumFrames	NumMarkers	Units	OrigDataRate	OrigDataStartFrame	OrigNumFrames
200	200	4	48	mm	200	1001	2000
Frame#	Time	racr			lacr			c7			jug			rlel			rdr			llel			ldr			s2			lic			ric			lasi			rasi			rpsi			lpsi			rgt			lgt			rth1			rth2			rth3			rth4			rlfc			rsh1			rsh2			rsh3			rsh4			rlmal			rmmal			rcal			rtoe			rmt5			lth1			lth2			lth4			lth3			llfc			lsh1			lsh2			lsh3			lsh4			llmal			lmmal			lcal			ltoe			lmt5			SBIKE			LBIKE			RBIKE			
		X1	Y1	Z1	X2	Y2	Z2	X3	Y3	Z3	X4	Y4	Z4	X5	Y5	Z5	X6	Y6	Z6	X7	Y7	Z7	X8	Y8	Z8	X9	Y9	Z9	X10	Y10	Z10	X11	Y11	Z11	X12	Y12	Z12	X13	Y13	Z13	X14	Y14	Z14	X15	Y15	Z15	X16	Y16	Z16	X17	Y17	Z17	X18	Y18	Z18	X19	Y19	Z19	X20	Y20	Z20	X21	Y21	Z21	X22	Y22	Z22	X23	Y23	Z23	X24	Y24	Z24	X25	Y25	Z25	X26	Y26	Z26	X27	Y27	Z27	X28	Y28	Z28	X29	Y29	Z29	X30	Y30	Z30	X31	Y31	Z31	X32	Y32	Z32	X33	Y33	Z33	X34	Y34	Z34	X35	Y35	Z35	X36	Y36	Z36	X37	Y37	Z37	X38	Y38	Z38	X39	Y39	Z39	X40	Y40	Z40	X41	Y41	Z41	X42	Y42	Z42	X43	Y43	Z43	X44	Y44	Z44	X45	Y45	Z45	X46	Y46	Z46	X47	Y47	Z47	X48	Y48	Z48	
1001	5.0050	699.827801	1289.987108	-97.205593	693.191041	1249.001776	-474.189972	695.764347	1389.741269	-288.526381	677.679338	1219.778287	-278.207493	550.445556	1063.815539	35.336447	695.030477	888.004927	-37.963870	510.253337	1025.953340	-560.412157	679.792564	892.157622	-449.522933	161.253107	1207.152199	-243.297002	314.601245	1208.406890	-434.067495	327.494814	1199.467918	-102.749677	317.978374	1156.360413	-410.013529	346.330558	1152.639285	-133.488387	195.014104	1245.063948	-194.875125	187.735095	1247.460488	-299.537519	277.388175	1084.267940	-66.830188	253.713367	1071.934349	-444.845602	362.374761	988.201220	-58.611495	421.363703	928.611427	-63.147853	479.228223	859.963595	-73.519860	460.021595	963.713953	-85.824718	505.620259	755.291072	-96.617601	401.105326	696.236901	-62.834254	332.815924	646.481392	-67.343773	255.853506	602.236333	-77.713460	359.783807	608.256665	-105.273478	147.708039	553.581463	-94.641937	180.244159	525.062291	-172.517566	111.053934	578.138093	-151.482028	186.724471	316.824383	-137.473721	123.690074	404.585933	-69.413760	307.477652	952.850289	-449.593028	366.995618	896.170195	-430.606725	410.059319	928.990124	-446.178863	426.218747	826.721273	-433.427237	480.607643	718.956591	-417.486745	406.993101	631.753611	-448.362832	376.653479	550.496984	-442.338467	344.911543	471.883005	-429.658772	430.620791	533.293907	-417.695813	294.062659	354.690087	-416.008719	328.540493	360.324124	-336.017896	240.309517	331.744539	-375.814730	501.294509	240.628682	-371.842065	396.199735	242.489276	-442.728442	-223.720091	893.260011	-253.517376	-12.513849	84.479412	-456.235488	-21.567133	81.130777	-56.079650	
1002	5.0100	699.132202	1290.504138	-95.143098	694.240641	1248.642852	-472.804071	695.884162	1389.626550	-286.663439	678.455158	1220.046781	-276.051880	549.480306	1063.325688	35.870824	694.873888	888.087974	-38.076292	511.103225	1026.208365	-561.015483	679.909773	891.889145	-449.684563	161.238690	1206.065959	-244.877251	314.693756	1206.446441	-434.693270	326.990973	1199.607905	-103.415623	318.541992	1154.626206	-410.779749	345.966153	1152.844213	-134.123476	194.591456	1244.350731	-196.412324	188.067324	1246.134389	-300.971503	276.510711	1085.348769	-67.649065	252.825250	1069.076449	-444.987368	365.482107	991.600549	-58.821027	425.638565	933.243696	-62.572423	485.224719	866.086435	-73.193088	463.194835	969.024531	-86.058283	512.059888	761.094646	-96.116190	406.905077	703.582397	-62.632501	337.874622	654.918356	-67.202740	260.174932	612.028651	-77.748781	364.246523	616.236182	-105.123681	150.936624	564.062558	-94.993602	183.883010	535.731407	-172.813000	113.409278	587.929814	-151.584496	193.461666	327.972205	-137.422243	128.945241	414.678722	-69.382394	303.409462	948.559860	-449.317226	361.546230	892.388792	-431.981312	407.366285	921.696999	-445.177886	418.178817	818.946425	-433.152230	472.164212	711.525962	-417.250897	399.947544	623.682293	-448.141216	370.432492	541.980081	-442.320968	339.311107	463.150773	-429.894072	424.351560	525.387469	-416.953005	288.971611	345.989356	-416.086638	323.300443	351.859172	-336.766491	235.629821	323.517968	-375.868408	495.912052	230.348984	-371.751936	390.868899	232.979777	-442.682443	-223.706821	893.249679	-253.506227	-12.508569	84.467473	-456.230156	-21.545990	81.105856	-56.080304	
1003	5.0150	698.420398	1291.113357	-92.911879	695.274937	1248.399788	-471.343043	696.011235	1389.551004	-284.617438	679.134920	1220.344015	-273.758795	547.714654	1062.604122	36.025389	694.813021	888.149429	-38.261687	512.220765	1026.475178	-561.669845	680.126566	891.551792	-449.845427	160.999518	1205.326052	-246.538506	314.960874	1204.751972	-435.244787	326.371762	1199.842882	-104.047425	319.076603	1152.843491	-411.430576	345.589750	1153.069347	-134.582479	194.209125	1243.761802	-198.068836	188.439304	1245.046579	-302.672299	276.616336	1086.501629	-67.807884	251.993342	1066.280390	-445.127452	367.849437	995.026139	-58.388078	429.459195	938.085572	-61.885915	490.565856	872.262397	-72.562564	465.695634	974.625975	-85.721336	518.388945	767.098771	-95.438466	412.786994	711.082827	-62.545358	342.904081	663.501935	-67.203391	264.732948	621.630222	-77.772982	368.916374	624.257222	-104.905520	154.638958	574.109891	-95.317037	187.988924	546.115475	-173.119101	116.160501	597.396173	-151.479037	200.737992	338.778049	-137.409841	134.848173	424.379835	-69.352249	299.305437	944.794255	-448.916616	356.050089	888.744351	-433.431136	400.330965	914.741171	-446.417230	410.161878	811.949809	-431.928395	463.339370	704.489228	-416.781996	392.163971	615.572318	-447.636613	363.616508	533.810555	-442.294717	333.277793	454.631878	-430.020915	417.450248	517.783260	-416.330874	283.332380	337.656908	-416.069442	317.484126	343.718966	-337.524264	230.391811	315.781475	-375.842157	489.968336	220.375000	-371.675555	384.888936	223.929365	-442.703264	-223.705074	893.239905	-253.514339	-12.491610	84.455610	-456.215794	-21.552190	81.115540	-56.089334	
1004	5.0200	697.664887	1291.765504	-90.527485	696.329152	1248.262168	-469.789820	696.198984	1389.433520	-282.481206	679.886201	1220.576181	-271.444408	546.773438	1062.059827	36.647906	694.745250	888.231302	-38.449847	513.427612	1026.769426	-562.368951	680.376666	891.267482	-450.042397	160.520938	1204.741838	-248.530727	315.356263	1203.300635	-435.745655	325.667216	1200.174187	-104.615215	319.687499	1151.081408	-412.084187	345.125857	1153.524212	-135.007653	193.884402	1243.293462	-199.800795	188.928556	1244.008967	-304.423470	276.521051	1087.855220	-67.944417	251.118703	1063.816136	-445.330821	369.804407	998.428798	-57.862545	432.796470	942.971985	-61.136487	495.399136	878.512332	-71.754200	467.839370	980.116703	-85.323526	524.443878	773.490671	-94.835010	418.650287	718.722733	-62.419154	348.161038	672.016713	-67.080256	269.515044	631.032215	-77.786951	373.772358	632.333396	-104.640674	158.848695	583.673260	-95.661146	192.629600	556.114114	-173.478671	119.418279	606.168348	-151.832399	208.484384	349.145966	-137.485820	141.191728	433.640394	-69.475494	295.135538	941.319006	-448.744119	350.547071	885.251640	-434.933876	395.103127	908.270379	-446.740205	401.979886	805.371718	-430.931340	454.015623	697.612703	-416.477187	383.855901	608.252372	-448.028141	356.229211	525.960432	-442.163228	326.678843	446.514343	-429.942076	409.911542	510.518034	-415.937082	277.155917	329.725837	-415.960219	311.145650	335.935454	-338.284509	224.655515	308.435340	-375.667111	483.458253	210.893564	-371.632677	378.426770	215.405140	-442.644752	-223.717452	893.230817	-253.529519	-12.485376	84.448557	-456.229658	-21.542214	81.097768	-56.071249	
